<svg xmlns="http://www.w3.org/2000/svg" xmlns:xlink="http://www.w3.org/1999/xlink" version="1.1" x="0px" y="0px" viewBox="0 0 100 100" enable-background="new 0 0 100 100" xml:space="preserve"><path d="M87.8,26.5c0-6.9-5.4-14.5-13.1-14.5H52.2c-3.4,0-6,2.2-10,5.6L18.9,36.7c-0.3,0.1-0.6,0.2-0.8,0.4l-0.5,0.6  c-0.1,0.1-0.1,0.1-0.1,0.2c-3.2,2.9-5.2,7.1-5.2,11.3c0,4,1.8,7.7,4.9,10.2v26.4c0,1.8,1.4,3.2,3,3.2h32.1c1.4,0,2.4-1,2.7-2.3  L81,64.4c0.4-0.1,0.7-0.5,0.9-0.9c0.2-0.4,0.3-0.9,0.1-1.3V37.4C85.7,35.1,87.8,31.3,87.8,26.5z M43.9,20.2l0.3-0.3  c3.6-3.1,5.8-4.9,8-4.9h22.5c5.8,0,10.1,6.1,10.1,11.5c0,2.6-0.7,6-4,8.1c0,0,0.1-0.1,0.1-0.1c0.6-1.6,0.9-3.3,0.9-5.2  c0-0.8-0.7-1.5-1.5-1.5s-1.5,0.7-1.5,1.5c0,1.5-0.2,2.9-0.7,4.1c-0.3,0.8,0.1,1.6,0.8,1.9c0.2,0.1,0.4,0.1,0.6,0.1c0,0,0,0,0.1,0  c-0.3,0.3-0.4,0.6-0.4,1C79,36.6,79,36.8,79,37v25.2L55,82.6V60.2c2.7-1.4,3.9-3.2,4.8-5.6c0,0,0,0,0,0c0-0.1,0.1-0.2,0.1-0.3  c0.6-1.6,0.9-3.1,0.9-4.8c0-6.9-5.4-14.5-13.1-14.5h-22L43.9,20.2z M52,85.8c0,0.1,0,0.2,0,0.2l-31.9,0c0,0-0.1-0.1-0.1-0.2V58.7  c0-0.5-0.2-0.9-0.6-1.2c-2.7-1.9-4.2-4.9-4.2-8.2c0-3.6,1.8-7.2,4.8-9.6c0,0,0.1,0,0.1-0.1c1.4-1.1,3.1-1.6,5.2-1.6h22.5  c5.8,0,10.1,6.1,10.1,11.5c0,1.3-0.2,2.5-0.7,3.8c0,0.1-0.1,0.2-0.1,0.3c-0.8,2-1.7,3.2-4,4.2C52.4,58,52,58.6,52,59.2V85.8z"/><path d="M62.9,50.3c0.2,0.1,0.4,0.1,0.6,0.1c0.6,0,1.2-0.4,1.4-0.9c0.6-1.6,0.9-3.3,0.9-5.2c0-0.8-0.7-1.5-1.5-1.5s-1.5,0.7-1.5,1.5  c0,1.5-0.2,2.9-0.7,4.1C61.8,49.1,62.1,50,62.9,50.3z"/><path d="M67.9,45.3c0.2,0.1,0.4,0.1,0.6,0.1c0.6,0,1.2-0.4,1.4-0.9c0.6-1.6,0.9-3.3,0.9-5.2c0-0.8-0.7-1.5-1.5-1.5s-1.5,0.7-1.5,1.5  c0,1.5-0.2,2.9-0.7,4.1C66.8,44.1,67.1,45,67.9,45.3z"/><path d="M72.9,40.3c0.2,0.1,0.4,0.1,0.6,0.1c0.6,0,1.2-0.4,1.4-0.9c0.6-1.6,0.9-3.3,0.9-5.2c0-0.8-0.7-1.5-1.5-1.5s-1.5,0.7-1.5,1.5  c0,1.5-0.2,2.9-0.7,4.1C71.8,39.1,72.1,40,72.9,40.3z"/><path d="M49,63c-0.6,0-1,0.4-1,1v16.9c0,0,0,0.4-0.2,0.4c-0.6,0-1,0.4-1,1s0.4,1,1,1c1.3,0,2.2-1,2.2-2.4V64C50,63.4,49.6,63,49,63z  "/></svg>