<svg xmlns="http://www.w3.org/2000/svg" data-name="Layer 1" viewBox="0 0 100 125" x="0px" y="0px"><title>Untitled-1</title><path d="M87.3,37.32l0-.08a1,1,0,0,0-.09-.18l0-.07a1,1,0,0,0-.18-.18h0a1,1,0,0,0-.28-.14L50.14,24.82a1,1,0,0,0-.62,0L13,36.65a1,1,0,0,0-.28.14h0a1,1,0,0,0-.19.19l0,.07a1,1,0,0,0-.09.18l0,.08a1,1,0,0,0,0,.28V62.46a1,1,0,0,0,.69,1L49.52,75.25h0a1,1,0,0,0,.62,0h0L86.65,63.41a1,1,0,0,0,.69-1V37.6A1,1,0,0,0,87.3,37.32ZM48.83,60.25a15.88,15.88,0,0,1-4.49-2.51,18.11,18.11,0,0,0-6-3.15,18.12,18.12,0,0,0-6.74-1,16.16,16.16,0,0,1-6.1-.9A16.2,16.2,0,0,1,20,49.85a18,18,0,0,0-5.68-3V39L48.83,50.17Zm2-10.09L85.34,39v7.84a18.06,18.06,0,0,0-5.68,3A16.19,16.19,0,0,1,74.2,52.7a16.23,16.23,0,0,1-6.1.9,18.17,18.17,0,0,0-6.74,1,18.12,18.12,0,0,0-6,3.15,15.89,15.89,0,0,1-4.49,2.51ZM14.32,48.94a15.87,15.87,0,0,1,4.49,2.51,18.11,18.11,0,0,0,6,3.15,18.15,18.15,0,0,0,6.74,1,16.27,16.27,0,0,1,6.1.9,16.23,16.23,0,0,1,5.46,2.85,18.06,18.06,0,0,0,5.68,3v2.46a15.88,15.88,0,0,1-4.49-2.51,18.11,18.11,0,0,0-6-3.15,18.14,18.14,0,0,0-6.74-1,16.22,16.22,0,0,1-6.1-.9A16.2,16.2,0,0,1,20,54.43a18.05,18.05,0,0,0-5.68-3ZM50.83,62.37a18.05,18.05,0,0,0,5.68-3A16.23,16.23,0,0,1,62,56.49a16.16,16.16,0,0,1,6.1-.9,18.12,18.12,0,0,0,6.74-1,18.13,18.13,0,0,0,6-3.15,15.84,15.84,0,0,1,4.49-2.51V51.4a18.07,18.07,0,0,0-5.68,3,16.18,16.18,0,0,1-5.46,2.85,16.29,16.29,0,0,1-6.1.9,18.22,18.22,0,0,0-6.74,1,18.12,18.12,0,0,0-6,3.15,15.89,15.89,0,0,1-4.49,2.51Zm-1-35.55L83.1,37.6,75.85,40l-26,8.44L16.57,37.6ZM14.32,53.52A15.82,15.82,0,0,1,18.81,56a18.13,18.13,0,0,0,6,3.15,18.12,18.12,0,0,0,6.74,1,16.29,16.29,0,0,1,6.1.9,16.23,16.23,0,0,1,5.46,2.85,18.06,18.06,0,0,0,5.68,3v6L14.32,61.74ZM50.83,72.92v-6a18.05,18.05,0,0,0,5.68-3A16.23,16.23,0,0,1,62,61.07a16.16,16.16,0,0,1,6.1-.9,18.14,18.14,0,0,0,6.74-1,18.13,18.13,0,0,0,6-3.15,15.83,15.83,0,0,1,4.49-2.51v8.22Z"/><path d="M33.73,36.09a5.06,5.06,0,0,0-2.94-.19,1,1,0,1,0,.58,1.92,3.15,3.15,0,0,1,1.72.17,3.15,3.15,0,0,1,1.47.9,1,1,0,0,0,1.62-1.18A5.06,5.06,0,0,0,33.73,36.09Z"/><path d="M50.72,44.31a1,1,0,0,0,.81-1.59,5.74,5.74,0,0,0-5.39-1.82,1,1,0,1,0,.58,1.92,3.9,3.9,0,0,1,3.2,1.08A1,1,0,0,0,50.72,44.31Z"/><path d="M46.58,36.05a1,1,0,0,0,.22-1.4,5.75,5.75,0,0,0-5.39-1.82A1,1,0,0,0,42,34.75a3.89,3.89,0,0,1,3.2,1.08,1,1,0,0,0,1.4.22Z"/><path d="M62.25,38.89A3.9,3.9,0,0,1,65.44,40a1,1,0,1,0,1.62-1.17A5.74,5.74,0,0,0,61.67,37a1,1,0,1,0,.58,1.92Z"/><path d="M53.53,32.24a3.89,3.89,0,0,1,3.2,1.08,1,1,0,0,0,1.62-1.18A5.74,5.74,0,0,0,53,30.33a1,1,0,1,0,.58,1.92Z"/></svg>