<svg xmlns="http://www.w3.org/2000/svg" xmlns:xlink="http://www.w3.org/1999/xlink" version="1.1" x="0px" y="0px" viewBox="0 0 100 100" enable-background="new 0 0 100 100" xml:space="preserve"><g><polygon fill="none" points="14.638,75.987 12.323,75.987 12.323,91.208 87.677,91.208 87.677,75.987 85.362,75.987  "/><path fill="none" d="M11.242,69.477c0,1.873,1.523,3.396,3.396,3.396h70.724c1.873,0,3.396-1.523,3.396-3.396   c0-1.871-1.523-3.395-3.396-3.395H14.638C12.765,66.082,11.242,67.605,11.242,69.477z"/><circle fill="none" cx="46.336" cy="23.03" r="3.608"/><path fill="none" d="M78.974,53.691c-1.39,1.131-3.163,1.809-5.092,1.809c-4.347,0-7.903-3.448-8.076-7.754H15.378h-3.056v15.221   h2.315h70.724h2.315v-2.689c-0.251,0.024-0.494,0.076-0.752,0.076C82.955,60.355,79.643,57.472,78.974,53.691z"/><path fill="none" d="M41.171,23.03c0-2.848,2.317-5.164,5.164-5.164c2.848,0,5.165,2.317,5.165,5.164   c0,1.599-0.746,3.012-1.891,3.96h2.706c0.156-0.748,0.264-1.506,0.264-2.279c0-5.153-3.537-9.484-8.308-10.724   c-0.632,1.412-0.763,2.593-0.774,2.714c-0.075,0.807-0.753,1.412-1.548,1.412c-0.048,0-0.097-0.002-0.146-0.006   c-0.856-0.081-1.485-0.839-1.406-1.695c0.074-0.797,0.287-1.759,0.656-2.771c-5.914,0.231-10.658,5.101-10.658,11.07   c0,0.772,0.108,1.531,0.265,2.279h12.399C41.917,26.042,41.171,24.629,41.171,23.03z"/><circle fill="none" cx="87.165" cy="47.28" r="1.654"/><path fill="none" d="M91.886,37.369c0-4.006-3.259-7.266-7.265-7.266H29.463c-0.01,0-0.02,0.005-0.03,0.005   c-0.01,0-0.019-0.004-0.029-0.005H15.378c-4.006,0-7.265,3.26-7.265,7.266s3.259,7.264,7.265,7.264h51.979   c0.86,0,1.557,0.696,1.557,1.557v1.228c0,2.74,2.229,4.968,4.969,4.968c2.74,0,4.968-2.229,4.968-4.968   c0-0.86,0.697-1.557,1.557-1.557c0.86,0,1.557,0.696,1.557,1.557v4.862c0,2.735,2.226,4.961,4.961,4.961   c2.735,0,4.961-2.226,4.961-4.961V38.514c-0.018-0.097-0.03-0.193-0.036-0.289c-0.005-0.074-0.004-0.149,0.002-0.223   C91.87,37.792,91.886,37.582,91.886,37.369z M87.165,50.491c-1.77,0-3.211-1.44-3.211-3.211s1.44-3.211,3.211-3.211   c1.77,0,3.211,1.44,3.211,3.211S88.935,50.491,87.165,50.491z"/><path d="M95,37.369c0-5.722-4.656-10.379-10.378-10.379H55.506c0.121-0.751,0.189-1.511,0.189-2.279   c0-6.21-4.012-11.488-9.574-13.415c1.349-1.324,3.381-2.397,6.448-2.499c0.86-0.027,1.532-0.748,1.504-1.607   s-0.756-1.595-1.608-1.504c-4.88,0.162-7.955,2.352-9.785,4.88c-0.393-0.033-0.788-0.06-1.19-0.06   c-7.833,0-14.206,6.373-14.206,14.206c0,0.767,0.068,1.528,0.189,2.279H15.378C9.656,26.99,5,31.647,5,37.369   c0,3.449,1.698,6.503,4.296,8.39c-0.041,0.139-0.087,0.278-0.087,0.43v18.335c0,0.359,0.141,0.673,0.345,0.936   c-0.879,1.11-1.426,2.493-1.426,4.015c0,1.522,0.547,2.906,1.426,4.016c-0.204,0.263-0.345,0.578-0.345,0.937v18.335   c0,0.86,0.697,1.557,1.557,1.557h78.468c0.86,0,1.557-0.696,1.557-1.557V74.43c0-0.359-0.142-0.674-0.345-0.937   c0.879-1.11,1.426-2.494,1.426-4.016c0-1.522-0.547-2.906-1.426-4.015c0.204-0.263,0.345-0.578,0.345-0.936v-5.2   c2.495-1.375,4.209-4,4.209-7.044V38.514c0-0.129-0.011-0.255-0.032-0.404C94.987,37.865,95,37.619,95,37.369z M30.398,24.711   c0-5.97,4.744-10.84,10.658-11.07c-0.368,1.012-0.582,1.974-0.656,2.771c-0.08,0.856,0.55,1.615,1.406,1.695   c0.049,0.005,0.098,0.006,0.146,0.006c0.795,0,1.473-0.605,1.548-1.412c0.011-0.121,0.142-1.302,0.774-2.714   c4.771,1.24,8.308,5.571,8.308,10.724c0,0.773-0.108,1.531-0.264,2.279H49.61c1.145-0.948,1.891-2.362,1.891-3.96   c0-2.848-2.317-5.164-5.165-5.164c-2.848,0-5.164,2.317-5.164,5.164c0,1.599,0.746,3.012,1.89,3.96H30.662   C30.506,26.242,30.398,25.483,30.398,24.711z M42.728,23.03c0-1.989,1.618-3.608,3.608-3.608c1.99,0,3.608,1.619,3.608,3.608   s-1.618,3.608-3.608,3.608C44.346,26.637,42.728,25.018,42.728,23.03z M88.758,69.477c0,1.873-1.523,3.396-3.396,3.396H14.638   c-1.873,0-3.396-1.523-3.396-3.396c0-1.871,1.523-3.395,3.396-3.395h70.724C87.235,66.082,88.758,67.605,88.758,69.477z    M87.677,91.208H12.323V75.987h2.315h70.724h2.315V91.208z M87.677,62.968h-2.315H14.638h-2.315V47.747h3.056h50.429   c0.173,4.306,3.729,7.754,8.076,7.754c1.929,0,3.701-0.678,5.092-1.809c0.669,3.781,3.98,6.664,7.951,6.664   c0.257,0,0.5-0.052,0.752-0.076V62.968z M91.886,38.514V52.28c0,2.735-2.226,4.961-4.961,4.961c-2.735,0-4.961-2.226-4.961-4.961   v-4.862c0-0.86-0.697-1.557-1.557-1.557c-0.86,0-1.557,0.696-1.557,1.557c0,2.74-2.229,4.968-4.968,4.968   c-2.74,0-4.969-2.229-4.969-4.968V46.19c0-0.86-0.697-1.557-1.557-1.557H15.378c-4.006,0-7.265-3.258-7.265-7.264   s3.259-7.266,7.265-7.266h14.027c0.01,0,0.019,0.005,0.029,0.005c0.01,0,0.02-0.004,0.03-0.005h55.158   c4.006,0,7.265,3.26,7.265,7.266c0,0.213-0.016,0.423-0.033,0.632c-0.006,0.074-0.007,0.149-0.002,0.223   C91.856,38.321,91.868,38.417,91.886,38.514z"/><path d="M87.165,44.069c-1.77,0-3.211,1.44-3.211,3.211s1.44,3.211,3.211,3.211c1.77,0,3.211-1.44,3.211-3.211   S88.935,44.069,87.165,44.069z M87.165,48.934c-0.912,0-1.654-0.742-1.654-1.654s0.742-1.654,1.654-1.654   c0.912,0,1.654,0.742,1.654,1.654S88.077,48.934,87.165,48.934z"/></g></svg>