<svg xmlns="http://www.w3.org/2000/svg" xmlns:xlink="http://www.w3.org/1999/xlink" xml:space="preserve" version="1.1" style="shape-rendering:geometricPrecision;text-rendering:geometricPrecision;image-rendering:optimizeQuality;" viewBox="0 0 333 416.25" x="0px" y="0px" fill-rule="evenodd" clip-rule="evenodd"><defs><style type="text/css">
   
    .fil0 {fill:black}
   
  </style></defs><g><path class="fil0" d="M91 141c-1,-20 11,-34 30,-42 0,-4 -1,-7 -1,-11 0,-24 19,-44 43,-45 2,-18 17,-27 30,-26 7,0 6,12 1,13 -10,2 -16,4 -17,14 21,4 36,22 36,44 0,4 0,7 -1,11 19,8 32,22 30,42 25,2 33,25 28,49l-24 127 -158 0 -25 -127c-5,-24 3,-47 28,-49zm86 -83l0 11 -14 0 0 -13c-17,2 -29,16 -29,32 0,17 15,32 33,32 18,0 33,-15 33,-32 0,-14 -10,-26 -23,-30zm29 54c-8,13 -23,21 -39,21 -17,0 -32,-8 -40,-21 -17,8 -26,23 -18,45 -20,-8 -38,0 -32,30l180 0c6,-30 -12,-38 -33,-30 8,-22 -1,-37 -18,-45zm-33 89l0 102 25 0 9 -102 -34 0zm-13 102l0 -102 -34 0 9 102 25 0zm94 -102l-33 0 -9 102 22 0 20 -102zm-142 0l-33 0 20 102 23 0 -10 -102z"/></g></svg>