<svg xmlns="http://www.w3.org/2000/svg" viewBox="0 0 512 640" version="1.1" x="0px" y="0px"><path fill="#000000" stroke="#000000" stroke-width="0.09375" opacity="1.00" d=" M 232.35 0.00 L 279.58 0.00 C 318.55 3.72 356.72 16.21 390.00 36.87 C 434.85 64.36 470.85 105.99 491.46 154.39 C 504.22 184.03 510.98 216.11 512.00 248.33 L 512.00 262.62 C 510.68 302.48 500.21 342.03 481.07 377.06 C 452.76 429.44 405.61 471.33 350.18 493.11 C 306.29 510.56 257.53 515.30 211.05 507.06 C 171.51 500.10 133.73 483.54 101.73 459.30 C 74.21 438.50 50.94 412.10 33.78 382.17 C 12.85 345.92 1.43 304.44 0.00 262.64 L 0.00 248.29 C 0.78 226.32 3.98 204.39 10.19 183.28 C 25.43 130.53 58.36 83.21 102.27 50.30 C 139.87 21.89 185.45 4.39 232.35 0.00 M 145.35 44.44 C 95.89 70.46 56.03 114.37 35.28 166.31 C 18.89 206.85 14.42 251.93 21.53 295.02 C 31.30 289.86 41.70 285.36 52.84 284.46 C 68.29 282.93 83.60 288.24 96.64 296.21 C 104.55 300.88 111.57 306.87 119.36 311.72 C 129.22 318.01 140.14 323.21 151.91 324.38 C 164.93 325.77 177.97 321.75 189.19 315.34 C 177.62 302.45 169.74 286.23 167.12 269.08 C 163.87 248.89 167.77 227.63 178.09 209.96 C 188.32 192.16 204.86 178.10 224.08 170.85 C 242.82 163.69 263.99 163.11 283.11 169.18 C 304.14 175.74 322.50 190.40 333.60 209.42 C 343.28 225.75 347.48 245.21 345.53 264.09 C 343.82 282.09 336.31 299.39 324.68 313.21 C 335.21 319.89 347.46 324.32 360.00 324.66 C 372.81 325.02 385.28 320.64 396.30 314.37 C 406.89 308.54 415.93 300.34 426.40 294.31 C 436.29 288.49 447.35 284.00 458.97 283.83 C 470.23 283.56 481.08 287.56 490.83 292.89 C 496.60 255.26 493.78 216.25 481.77 180.08 C 464.55 127.61 428.12 81.90 381.24 52.81 C 347.33 31.64 307.92 19.44 267.99 17.55 C 225.69 15.38 182.81 24.61 145.35 44.44 M 247.50 183.75 C 224.67 186.31 203.66 200.70 192.86 220.96 C 184.11 236.96 181.93 256.37 186.79 273.94 C 191.27 290.50 202.00 305.24 216.28 314.73 C 239.59 330.69 272.42 330.70 295.72 314.72 C 309.68 305.45 320.25 291.16 324.90 275.05 C 329.57 259.08 328.47 241.48 321.74 226.26 C 315.47 211.92 304.37 199.76 290.67 192.20 C 277.65 184.93 262.31 181.97 247.50 183.75 M 26.14 315.47 C 38.31 364.15 67.40 408.11 106.24 439.69 C 142.90 469.70 188.80 488.17 236.03 491.93 C 278.14 495.46 321.20 487.75 359.25 469.30 C 390.96 454.02 419.09 431.49 441.20 404.13 C 462.69 377.70 478.12 346.52 486.63 313.56 C 476.98 306.83 464.99 301.69 453.05 304.33 C 440.69 307.06 430.44 314.98 420.43 322.28 C 403.92 334.22 384.69 343.84 363.96 344.50 C 344.97 345.30 326.63 338.08 310.81 328.08 C 309.45 326.77 308.13 328.49 306.98 329.12 C 290.23 340.86 269.30 346.35 248.94 344.71 C 233.24 343.61 218.07 337.96 205.00 329.29 C 192.64 336.32 179.37 342.61 165.00 343.85 C 160.99 343.99 156.98 343.73 152.97 343.80 C 148.74 343.94 145.01 341.64 140.95 340.86 C 136.37 339.58 131.44 339.85 127.04 337.92 C 115.31 333.12 104.68 326.07 94.57 318.52 C 84.16 310.95 72.21 304.18 59.01 303.91 C 47.01 303.55 36.02 309.25 26.14 315.47 Z"/><path fill="#000000" stroke="#000000" stroke-width="0.09375" opacity="1.00" d=" M 263.65 45.70 C 265.86 45.19 268.38 45.07 270.41 46.26 C 279.81 51.36 289.39 56.13 298.87 61.08 C 303.34 63.23 304.18 70.23 300.02 73.10 C 297.78 75.41 293.96 74.94 291.41 73.40 C 281.93 68.28 272.11 63.77 262.76 58.42 C 257.77 55.72 258.84 48.00 263.65 45.70 Z"/><path fill="#000000" stroke="#000000" stroke-width="0.09375" opacity="1.00" d=" M 230.64 49.77 C 234.17 46.93 239.93 49.01 241.50 53.05 C 242.39 57.17 240.44 61.02 239.19 64.83 C 237.23 71.63 234.40 78.14 232.54 84.96 C 231.76 88.24 230.19 91.26 227.62 93.47 C 225.61 93.48 223.52 93.86 221.56 93.27 C 219.86 92.47 218.72 90.91 217.42 89.62 C 216.44 84.05 219.81 79.28 221.01 74.07 C 222.59 68.33 224.90 62.83 226.53 57.10 C 227.36 54.43 228.13 51.39 230.64 49.77 Z"/><path fill="#000000" stroke="#000000" stroke-width="0.09375" opacity="1.00" d=" M 160.91 58.51 C 162.89 58.06 164.97 58.25 166.90 58.87 C 175.75 61.67 184.61 64.44 193.43 67.35 C 198.90 69.04 200.09 77.22 195.41 80.46 C 193.94 81.90 191.73 81.42 190.00 80.84 C 180.97 77.94 171.99 74.90 162.92 72.15 C 157.34 70.31 155.71 61.81 160.91 58.51 Z"/><path fill="#000000" stroke="#000000" stroke-width="0.09375" opacity="1.00" d=" M 362.84 67.86 C 365.73 67.23 369.45 66.71 371.49 69.41 C 375.21 72.66 373.73 79.57 369.09 81.16 C 358.70 83.65 348.26 85.94 337.84 88.27 C 335.77 88.67 333.58 88.92 331.53 88.32 C 329.96 87.28 328.82 85.74 327.56 84.38 C 327.12 80.79 328.02 76.09 332.04 74.99 C 342.20 72.20 352.63 70.50 362.84 67.86 Z"/><path fill="#000000" stroke="#000000" stroke-width="0.09375" opacity="1.00" d=" M 192.67 97.04 C 198.04 95.41 203.65 101.85 201.08 106.96 C 199.71 110.16 196.19 111.40 192.99 111.79 C 182.94 113.51 173.09 116.47 162.98 117.76 C 159.62 118.38 157.33 115.81 155.47 113.47 C 154.70 109.59 156.34 104.80 160.58 103.85 C 171.28 101.59 181.97 99.28 192.67 97.04 Z"/><path fill="#000000" stroke="#000000" stroke-width="0.09375" opacity="1.00" d=" M 267.48 101.87 C 269.23 99.31 271.39 96.03 274.98 96.51 C 285.62 98.26 296.12 100.86 306.72 102.85 C 309.33 103.31 312.15 104.34 313.38 106.91 C 313.94 108.95 313.64 111.09 313.60 113.18 C 311.79 115.53 309.21 118.03 305.95 117.32 C 294.99 115.06 283.98 113.00 273.05 110.58 C 269.05 109.96 267.15 105.54 267.48 101.87 Z"/><path fill="#000000" stroke="#000000" stroke-width="0.09375" opacity="1.00" d=" M 111.89 103.90 C 114.55 100.51 120.35 100.54 122.96 103.96 C 124.92 106.27 125.28 110.02 123.31 112.43 C 117.42 120.17 111.40 127.82 105.48 135.54 C 103.67 137.78 101.83 140.25 99.07 141.36 C 96.23 141.96 93.26 140.74 91.49 138.49 C 89.56 136.48 90.53 133.45 90.56 130.98 C 97.94 122.17 104.68 112.84 111.89 103.90 Z"/><path fill="#000000" stroke="#000000" stroke-width="0.09375" opacity="1.00" d=" M 347.49 104.70 C 353.46 102.25 360.10 109.13 356.75 114.90 C 352.37 124.75 348.06 134.63 343.63 144.45 C 342.57 147.04 339.86 148.89 337.02 148.57 C 334.10 148.85 331.92 146.37 330.47 144.16 C 329.28 139.42 332.13 135.20 333.90 131.04 C 337.16 123.62 340.37 116.18 343.78 108.83 C 344.55 107.12 345.76 105.53 347.49 104.70 Z"/><path fill="#000000" stroke="#000000" stroke-width="0.09375" opacity="1.00" d=" M 397.51 112.71 C 399.29 112.08 401.41 112.17 403.20 112.81 C 412.91 117.76 422.74 122.51 432.54 127.30 C 437.20 129.27 438.44 136.38 434.64 139.73 C 432.52 142.15 428.77 142.30 426.00 141.01 C 417.05 136.61 408.12 132.18 399.13 127.88 C 396.57 126.63 393.88 124.90 393.00 122.04 C 391.64 118.34 394.07 114.22 397.51 112.71 Z"/><path fill="#000000" stroke="#000000" stroke-width="0.09375" opacity="1.00" d=" M 224.35 113.19 C 226.47 111.88 228.87 113.15 231.03 113.66 C 232.81 115.80 235.37 118.34 234.18 121.40 C 228.72 131.57 222.31 141.20 216.53 151.19 C 213.94 156.38 206.34 155.63 203.36 151.23 C 203.34 148.46 202.73 145.36 204.57 143.00 C 208.93 136.23 212.81 129.17 217.15 122.39 C 219.27 119.15 220.51 114.87 224.35 113.19 Z"/><path fill="#000000" stroke="#000000" stroke-width="0.09375" opacity="1.00" d=" M 165.43 125.51 C 170.05 124.07 175.48 128.05 174.70 133.03 C 174.92 135.63 172.68 137.30 171.02 138.92 C 163.54 145.47 156.16 152.13 148.67 158.68 C 147.29 159.79 145.84 161.04 144.02 161.30 C 139.65 161.59 135.38 157.64 135.72 153.19 C 136.55 149.75 139.50 147.47 142.06 145.28 C 146.05 142.15 149.50 138.41 153.48 135.27 C 157.44 132.02 160.78 127.76 165.43 125.51 Z"/><path fill="#000000" stroke="#000000" stroke-width="0.09375" opacity="1.00" d=" M 343.11 156.64 C 353.01 155.27 363.00 154.70 372.92 153.51 C 376.13 153.52 380.23 152.44 382.52 155.41 C 385.01 158.10 384.60 161.89 383.19 164.99 C 381.85 165.79 380.60 166.83 379.09 167.30 C 368.41 168.52 357.69 169.29 347.02 170.59 C 344.36 170.75 341.22 170.97 339.47 168.54 C 335.52 164.94 338.03 157.62 343.11 156.64 Z"/><path fill="#000000" stroke="#000000" stroke-width="0.09375" opacity="1.00" d=" M 62.96 161.80 C 65.25 160.87 67.68 160.38 70.16 160.41 C 72.22 162.17 75.23 163.84 74.70 167.05 C 74.38 178.07 72.86 189.01 72.41 200.03 C 72.40 204.77 67.46 208.49 62.89 207.27 C 60.05 205.89 58.03 203.27 57.70 200.09 C 59.31 188.75 59.30 177.22 60.76 165.85 C 61.22 164.37 62.20 163.13 62.96 161.80 Z"/><path fill="#000000" stroke="#000000" stroke-width="0.09375" opacity="1.00" d=" M 429.08 163.33 C 429.94 162.63 430.75 161.84 431.72 161.28 C 432.10 163.35 430.60 165.10 430.00 166.97 C 432.49 167.96 434.28 170.29 434.60 172.95 C 436.05 179.98 437.97 186.92 438.90 194.05 C 439.07 192.81 439.27 191.56 439.50 190.33 C 439.51 192.58 439.49 194.84 439.72 197.09 C 440.67 201.34 443.39 206.97 439.61 210.55 C 437.21 213.56 431.89 213.43 429.44 210.58 C 426.74 208.15 426.92 204.22 426.09 200.98 C 424.27 193.33 422.72 185.61 420.89 177.96 C 420.42 175.60 420.09 173.11 420.65 170.74 C 422.39 167.28 426.43 165.92 430.10 166.61 C 429.85 165.79 429.34 164.15 429.08 163.33 Z"/><path fill="#000000" stroke="#000000" stroke-width="0.09375" opacity="1.00" d=" M 102.42 170.60 C 104.47 169.14 107.40 169.08 109.41 170.65 C 117.53 176.06 125.16 182.18 133.15 187.77 C 136.08 190.07 140.48 192.61 139.47 197.01 C 139.11 201.91 132.97 205.48 128.80 202.35 C 119.62 195.79 110.52 189.11 101.46 182.39 C 97.29 179.51 98.47 173.08 102.42 170.60 Z"/><path fill="#000000" stroke="#000000" stroke-width="0.09375" opacity="1.00" d=" M 389.56 184.73 C 393.87 183.02 399.76 186.02 399.64 190.97 C 399.67 201.64 399.33 212.32 399.31 222.99 C 399.48 226.14 397.79 229.47 394.79 230.69 C 390.32 233.05 384.59 228.85 384.68 223.99 C 384.63 218.66 384.61 213.31 385.19 208.00 C 385.49 201.99 385.18 195.95 385.58 189.94 C 385.66 187.58 387.77 185.94 389.56 184.73 Z"/><path fill="#000000" stroke="#000000" stroke-width="0.09375" opacity="1.00" d=" M 464.43 206.70 C 468.37 205.28 473.83 206.77 474.99 211.19 C 476.12 213.42 474.20 215.44 473.02 217.17 C 467.34 224.43 461.65 231.69 456.02 239.00 C 452.66 243.36 444.56 242.34 442.88 236.90 C 441.78 234.88 443.37 232.97 444.44 231.37 C 449.41 224.72 454.66 218.28 459.63 211.63 C 461.06 209.84 462.54 208.01 464.43 206.70 Z"/><path fill="#000000" stroke="#000000" stroke-width="0.09375" opacity="1.00" d=" M 133.59 212.81 C 135.60 212.08 137.85 212.12 139.92 212.60 C 143.29 214.28 145.62 219.01 143.42 222.45 C 142.42 224.56 140.19 225.53 138.21 226.49 C 129.59 230.59 120.73 234.17 112.15 238.36 C 109.80 239.59 107.03 240.08 104.45 239.35 C 102.25 237.98 99.94 235.96 100.22 233.08 C 99.59 229.84 101.88 227.04 104.74 225.85 C 114.37 221.54 123.97 217.15 133.59 212.81 Z"/><path fill="#000000" stroke="#000000" stroke-width="0.09375" opacity="1.00" d=" M 52.94 235.41 C 63.24 233.67 73.65 232.71 83.94 230.91 C 86.36 230.30 88.72 231.27 91.02 231.91 C 95.26 235.70 94.38 243.79 88.37 245.14 C 78.23 246.43 68.10 247.76 58.00 249.32 C 54.86 249.76 51.05 249.93 48.95 247.06 C 45.29 243.40 47.55 235.86 52.94 235.41 Z"/><path fill="#000000" stroke="#000000" stroke-width="0.09375" opacity="1.00" d=" M 412.35 243.55 C 414.66 243.09 417.08 243.53 419.00 244.91 C 428.02 250.62 437.27 255.96 446.24 261.74 C 449.39 263.68 450.50 268.11 448.31 271.19 C 446.34 274.88 441.18 275.71 437.87 273.38 C 429.11 268.00 420.34 262.63 411.56 257.27 C 409.39 255.87 406.98 253.91 407.25 251.04 C 406.62 247.60 409.37 244.67 412.35 243.55 Z"/><path fill="#000000" stroke="#000000" stroke-width="0.09375" opacity="1.00" d=" M 375.08 248.03 C 379.01 246.13 384.56 248.48 385.37 252.95 C 387.59 263.76 389.92 274.54 392.04 285.37 C 393.29 290.32 387.80 294.99 383.02 293.42 C 379.59 292.75 377.89 289.23 377.48 286.06 C 375.55 276.01 373.38 266.00 371.43 255.96 C 370.62 252.73 372.26 249.62 375.08 248.03 Z"/><path fill="#000000" stroke="#000000" stroke-width="0.09375" opacity="1.00" d=" M 107.72 260.02 C 111.00 258.95 114.26 261.38 115.87 264.11 C 120.73 272.00 125.46 279.98 130.27 287.91 C 131.94 290.65 134.19 293.61 133.30 297.03 C 132.06 299.94 129.44 302.73 126.00 302.42 C 123.22 302.59 121.02 300.41 119.68 298.20 C 114.14 288.85 108.36 279.62 102.80 270.28 C 100.95 266.10 103.61 261.47 107.72 260.02 Z"/></svg>