<svg xmlns="http://www.w3.org/2000/svg" viewBox="0 0 52 60" x="0px" y="0px"><path fill-rule="evenodd" d="M560.686267,676.831238 C559.01171,674.486859 558,671.856413 558,669 C558,662.094959 562.776524,657 570,657 C577.223476,657 582,662.094959 582,669 C582,671.856413 580.98829,674.486859 579.313733,676.831238 C578.888671,677.426325 578.441729,677.972124 577.988328,678.466306 L591.401094,681.819497 C594.609905,682.6217 596.561024,685.87901 595.758575,689.088805 L595.18171,691.396266 C594.370805,694.639887 591.116715,696.426331 587.941054,695.367777 L582.122487,693.428255 L582.986591,703.797495 L586.366652,713.937678 C587.412483,717.075172 585.753671,720.517274 582.644846,721.647756 L581.03864,722.231831 C577.913065,723.368403 574.522672,721.730295 573.469285,718.570134 L570.279241,709 L569.720759,709 L566.530715,718.570134 C565.478221,721.727615 562.090053,723.369537 558.96136,722.231831 L557.355154,721.647756 C554.251074,720.519 552.590532,717.076284 553.640819,713.945218 L557.013385,703.891085 L557.878521,693.427919 L552.058946,695.367777 C548.888201,696.424692 545.628167,694.635775 544.81829,691.396266 L544.241425,689.088805 C543.439251,685.880111 545.396469,682.620106 548.598906,681.819497 L562.011672,678.466306 C561.558271,677.972124 561.111329,677.426325 560.686267,676.831238 Z M581.316228,691.051317 L582.599459,691.47906 L584.904969,682.257019 L575.757464,679.970143 C574.954633,679.769435 574.729105,678.736091 575.375305,678.219131 C575.503961,678.116207 575.750003,677.898283 576.074143,677.574143 C576.622937,677.025349 577.173244,676.386993 577.686267,675.668762 C579.13671,673.638141 580,671.393587 580,669 C580,663.171708 576.089024,659 570,659 C563.910976,659 560,663.171708 560,669 C560,671.393587 560.86329,673.638141 562.313733,675.668762 C562.826756,676.386993 563.377063,677.025349 563.925857,677.574143 C564.249997,677.898283 564.496039,678.116207 564.624695,678.219131 C565.270895,678.736091 565.045367,679.769435 564.242536,679.970143 L555.565619,682.139372 L557.86208,691.325214 L558.683772,691.051317 C559.364584,690.82438 560.055735,691.367205 559.996599,692.082403 L558.996599,704.176641 C558.989967,704.256848 558.973677,704.335961 558.948082,704.412264 L557.383546,709.076385 L566.386693,712.677644 L568.051317,707.683772 C568.187431,707.27543 568.56957,707 569,707 L571,707 C571.43043,707 571.812569,707.27543 571.948683,707.683772 L573.613307,712.677644 L582.635505,709.068794 L581.051317,704.316228 C581.026135,704.240683 581.010067,704.162401 581.003454,704.083045 L580.003454,692.083045 C579.943835,691.36761 580.635153,690.824292 581.316228,691.051317 Z M586.845254,682.74209 L584.50243,692.113384 L588.57351,693.470411 C590.64391,694.160544 592.713072,693.024607 593.241425,690.911195 L593.81829,688.603734 C594.353002,686.464888 593.052602,684.293927 590.916022,683.759782 L586.845254,682.74209 Z M551.42649,693.470411 L555.959108,691.959538 L553.625334,682.624443 L549.083978,683.759782 C546.952892,684.292553 545.647493,686.466868 546.18171,688.603734 L546.758575,690.911195 C547.285858,693.020328 549.360844,694.15896 551.42649,693.470411 Z M565.753144,714.578291 L556.746465,710.975619 L555.536983,714.581269 C554.831817,716.683479 555.954044,719.010134 558.03864,719.768169 L559.644846,720.352244 C561.71463,721.104893 563.936523,720.028153 564.633348,717.937678 L565.753144,714.578291 Z M584.469285,714.570134 L583.269046,710.969415 L574.246856,714.578291 L575.366652,717.937678 C576.064036,720.029831 578.287493,721.104121 580.355154,720.352244 L581.96136,719.768169 C584.051012,719.008296 585.172773,716.680597 584.469285,714.570134 Z M574,669.5 C573.171573,669.5 572.5,668.828427 572.5,668 C572.5,667.171573 573.171573,666.5 574,666.5 C574.828427,666.5 575.5,667.171573 575.5,668 C575.5,668.828427 574.828427,669.5 574,669.5 Z M566,669.5 C565.171573,669.5 564.5,668.828427 564.5,668 C564.5,667.171573 565.171573,666.5 566,666.5 C566.828427,666.5 567.5,667.171573 567.5,668 C567.5,668.828427 566.828427,669.5 566,669.5 Z M570,686.5 C569.171573,686.5 568.5,685.828427 568.5,685 C568.5,684.171573 569.171573,683.5 570,683.5 C570.828427,683.5 571.5,684.171573 571.5,685 C571.5,685.828427 570.828427,686.5 570,686.5 Z M570,694.5 C569.171573,694.5 568.5,693.828427 568.5,693 C568.5,692.171573 569.171573,691.5 570,691.5 C570.828427,691.5 571.5,692.171573 571.5,693 C571.5,693.828427 570.828427,694.5 570,694.5 Z M570,702.5 C569.171573,702.5 568.5,701.828427 568.5,701 C568.5,700.171573 569.171573,699.5 570,699.5 C570.828427,699.5 571.5,700.171573 571.5,701 C571.5,701.828427 570.828427,702.5 570,702.5 Z" transform="translate(-544 -657)"/></svg>