<svg xmlns="http://www.w3.org/2000/svg" data-name="Layer 1" viewBox="0 0 100 125" x="0px" y="0px"><title>cooking-and-kitchen</title><path d="M88.52,43.83V61.05a1,1,0,0,1-2,0V43.83A1,1,0,0,1,88.52,43.83Zm-15.19-5.5a3.82,3.82,0,0,1,3.81,3.81v35A3.82,3.82,0,0,1,73.33,81H26.67a3.82,3.82,0,0,1-3.81-3.81v-35a3.82,3.82,0,0,1,3.81-3.81H73.33Zm0,2H26.67a1.81,1.81,0,0,0-1.81,1.81v35A1.81,1.81,0,0,0,26.67,79H73.33a1.81,1.81,0,0,0,1.81-1.81v-35A1.81,1.81,0,0,0,73.33,40.33ZM42.95,51a1,1,0,0,0-1.41,0c-2.14,2-1.59,5.34-1.06,8.54,0.5,3,1,5.87-.65,7.39a1,1,0,0,0,1.37,1.46c2.4-2.25,1.79-5.93,1.25-9.17-0.47-2.81-.91-5.46.46-6.77A1,1,0,0,0,42.95,51Zm8.75,0a1,1,0,0,0-1.41,0c-2.14,2-1.59,5.34-1.06,8.54,0.5,3,1,5.87-.65,7.39A1,1,0,0,0,50,68.36c2.4-2.25,1.79-5.93,1.25-9.17-0.47-2.81-.91-5.46.46-6.77A1,1,0,0,0,51.7,51Zm8.51,0a1,1,0,0,0-1.41,0c-2.14,2-1.59,5.34-1.06,8.54,0.5,3,1,5.87-.65,7.39a1,1,0,0,0,1.37,1.46c2.39-2.25,1.79-5.93,1.25-9.17-0.47-2.81-.91-5.47.46-6.77A1,1,0,0,0,60.21,51ZM25.78,19a4.44,4.44,0,1,1-4.44-4.44A4.45,4.45,0,0,1,25.78,19Zm-2,0a2.44,2.44,0,1,0-2.44,2.44A2.44,2.44,0,0,0,23.78,19Zm13.78,0a4.44,4.44,0,1,1-4.44-4.44A4.45,4.45,0,0,1,37.56,19Zm-2,0a2.44,2.44,0,1,0-2.44,2.44A2.44,2.44,0,0,0,35.56,19Zm13.78,0a4.44,4.44,0,1,1-4.44-4.44A4.44,4.44,0,0,1,49.33,19Zm-2,0a2.44,2.44,0,1,0-2.44,2.44A2.44,2.44,0,0,0,47.33,19Zm13.78,0a4.44,4.44,0,1,1-4.44-4.44A4.44,4.44,0,0,1,61.11,19Zm-2,0a2.44,2.44,0,1,0-2.44,2.44A2.44,2.44,0,0,0,59.11,19Zm23.12,0a5.08,5.08,0,1,1-5.08-5.08A5.09,5.09,0,0,1,82.23,19Zm-2,0a3.08,3.08,0,1,0-3.08,3.08A3.08,3.08,0,0,0,80.23,19Zm8.28-7.84V39.33a1,1,0,0,1-2,0V30.65h-73V92.19A1.81,1.81,0,0,0,15.3,94H84.7a1.81,1.81,0,0,0,1.81-1.81V66a1,1,0,0,1,2,0V92.19A3.82,3.82,0,0,1,84.7,96H15.3a3.82,3.82,0,0,1-3.81-3.81v-81A3.82,3.82,0,0,1,15.3,7.35h5.8L22.75,4.5A1,1,0,0,1,23.61,4h7.27a1,1,0,0,1,0,2H24.19L23.41,7.35h19.3L41.92,6H35.23a1,1,0,0,1,0-2H42.5a1,1,0,0,1,.87.5L45,7.35H55L56.63,4.5A1,1,0,0,1,57.5,4h7.27a1,1,0,0,1,0,2H58.08L57.29,7.35h19.3L75.81,6H69.12a1,1,0,0,1,0-2h7.27a1,1,0,0,1,.87.5L78.9,7.35h5.8A3.82,3.82,0,0,1,88.52,11.16Zm-2,17.49V12.1a2.75,2.75,0,0,0-2.75-2.75H16.23a2.75,2.75,0,0,0-2.75,2.75V28.65h73Z"/></svg>