<svg xmlns="http://www.w3.org/2000/svg" xmlns:xlink="http://www.w3.org/1999/xlink" version="1.1" x="0px" y="0px" viewBox="0 0 100 125" enable-background="new 0 0 100 100" xml:space="preserve"><g><path d="M60.6,49.2C53.4,46,46.5,44.3,40,44.3c-3.9,0-6.8,0.6-8.4,1.1c-0.6,0.2-0.9,0.7-1,1.3c0,0.6,0.3,1.1,0.8,1.4   c6.5,2.9,13.7,4.4,20.9,4.4c0,0,0,0,0,0c3.5,0,6.2-0.4,7.9-0.7c0.6-0.1,1.1-0.6,1.1-1.2C61.5,50,61.2,49.4,60.6,49.2z M52.4,50.7   L52.4,50.7c-4.6,0-11.6-0.7-19.2-3.8c1.5-0.4,3.8-0.8,6.8-0.8c5.8,0,12.1,1.4,18.6,4.2C57.1,50.5,54.9,50.7,52.4,50.7z"/><path d="M68.2,34.7c-6.3-2.9-12.5-4.3-18.2-4.3c-3.5,0-6,0.5-7.5,1c-0.5,0.2-0.9,0.6-0.9,1.2c0,0.6,0.3,1.1,0.8,1.3   c5.8,2.6,12.2,3.9,18.5,3.9h0c3.1,0,5.5-0.3,7-0.6c0.6-0.1,1-0.6,1.1-1.2C69,35.5,68.7,35,68.2,34.7z M60.9,36.1   c-4,0-10.1-0.6-16.6-3.3c1.3-0.3,3.2-0.6,5.7-0.6c5,0,10.4,1.2,16,3.5C64.7,35.9,62.9,36.1,60.9,36.1z"/><path d="M76.7,21c-5.7-2.6-11.3-3.9-16.4-3.9c-3.2,0-5.4,0.5-6.8,0.9c-0.5,0.2-0.9,0.6-0.9,1.2c0,0.5,0.3,1,0.8,1.3   c5.2,2.3,11,3.6,16.7,3.6c0,0,0,0,0,0c2.8,0,5-0.3,6.3-0.5c0.6-0.1,1-0.5,1.1-1.1C77.6,21.8,77.3,21.3,76.7,21z M70.1,22.2   C70.1,22.2,70.1,22.2,70.1,22.2c-3.6,0-8.9-0.5-14.7-2.8c1.2-0.2,2.8-0.5,4.8-0.5c4.4,0,9.2,1,14.1,3   C73.2,22.1,71.8,22.2,70.1,22.2z"/><path d="M85.6,14.3C81.7,10.1,74.3,5,62,5h-0.1C56,5,50.5,7.7,46.8,12.3C11.2,56.3,10.6,59.1,10.4,60c-1.3,5.6,0,10.2,4.6,16.5   c4.8,6.6,17.1,15.1,33,18.3c0.4,0.1,0.9,0.1,1.3,0.1c1.7,0,3.4-0.7,4.6-1.9c2.7-2.6,8.8-11.9,10.5-16.8C70.2,67.8,84,45.8,89.2,31   C91.2,25.2,89.8,18.8,85.6,14.3z M87.5,30.4c-5.1,14.7-18.9,36.6-24.7,44.9c0,0,0,0,0,0c-4,5.7-11.2,10.4-15.5,11.1   c-1,0.2-1.8,0.1-2.2-0.2c-0.3-0.2-0.6-0.5-0.8-0.8c4.5-1.4,7.2-5.5,8.1-7.5c0.2-0.5,0.4-1.1,0.5-1.6c0.3-0.7,0.4-1.2,0.4-1.2   c0,0,0,0,0-0.1l0-0.2c0,0,0,0,0-0.1c0.3-3.5-1-6.9-3.7-9.9c-6-6.5-17.8-9.9-24-9.9c-2.6,0-4.9,0.7-6.7,2.2   c-2.8,2.2-4.1,6.1-3.3,9.8c0.2,3.7,1.4,7.1,3.6,10.1c2.6,3.5,6.3,6.1,10.7,7.5c4.8,1.5,9,2,12.6,1.3c0.4,0.7,0.9,1.3,1.7,1.8   c0.8,0.6,2,0.7,3.5,0.5c3.3-0.6,8.3-3.3,12.5-7.1c-2.4,4.3-5.7,9-7.5,10.7c-1.1,1.1-2.8,1.6-4.3,1.3C32.9,90,21,81.8,16.4,75.5   c-4.2-5.8-5.4-10-4.3-15.1c0.2-1,4.2-7.6,36-47c3.4-4.2,8.4-6.6,13.7-6.7H62c11.7,0,18.6,4.8,22.4,8.7   C88.1,19.5,89.3,25.3,87.5,30.4z M42.7,84C42.7,84.1,42.7,84.1,42.7,84C42.7,84.1,42.7,84.1,42.7,84L42.7,84   C42.7,84.1,42.7,84.1,42.7,84c-3.4,0.8-7.5,0.4-12.4-1.2c-4-1.3-7.5-3.7-9.8-6.9c-2-2.8-3.1-5.9-3.2-9.2c0-0.1,0-0.1,0-0.2   c-0.7-3,0.3-6.2,2.6-8c1.5-1.2,3.4-1.8,5.6-1.8c5.9,0,17,3.2,22.7,9.3c2.4,2.6,3.5,5.5,3.3,8.5l0,0.1c0,0.1-0.1,0.5-0.3,1   c0,0,0,0.1,0,0.1c-0.1,0.5-0.2,0.9-0.4,1.4C49.7,79.6,46.9,83.2,42.7,84z"/></g></svg>