<?xml version="1.0" standalone="no"?>
<!DOCTYPE svg PUBLIC "-//W3C//DTD SVG 20010904//EN"
 "http://www.w3.org/TR/2001/REC-SVG-20010904/DTD/svg10.dtd">
<svg version="1.0" xmlns="http://www.w3.org/2000/svg"
 width="516.000000pt" height="516.000000pt" viewBox="0 0 516.000000 516.000000"
 preserveAspectRatio="xMidYMid meet">
<metadata>
Created by potrace 1.11, written by Peter Selinger 2001-2013
</metadata>
<g transform="translate(0.000000,516.000000) scale(0.100000,-0.100000)"
fill="#000000" stroke="none">
<path d="M1335 5022 c-100 -11 -217 -66 -297 -141 -32 -30 -37 -31 -119 -31
-138 0 -229 -33 -352 -129 -91 -70 -169 -205 -183 -315 -7 -55 -24 -106 -34
-106 -5 0 -36 -25 -68 -55 -134 -124 -190 -328 -138 -505 65 -221 288 -374
518 -355 79 7 75 9 203 -145 47 -58 96 -116 109 -130 12 -14 70 -82 128 -151
116 -137 139 -153 225 -153 29 -1 53 -2 53 -4 0 -1 -6 -13 -14 -25 -8 -12 -18
-42 -22 -67 -4 -25 -8 -47 -9 -50 -23 -98 -23 -330 0 -441 53 -249 231 -444
448 -489 147 -30 322 4 432 85 17 12 35 24 41 26 22 8 101 110 128 166 37 73
59 198 52 286 -14 167 -126 275 -296 285 -75 4 -185 -11 -195 -28 -3 -5 8 -24
24 -43 106 -120 119 -378 25 -483 -58 -64 -151 -70 -210 -13 -33 32 -69 109
-78 166 -2 16 -8 48 -12 73 -12 76 -3 376 12 401 2 4 6 24 10 45 9 56 60 208
95 280 75 158 199 300 313 359 52 27 66 30 149 30 72 -1 102 -6 139 -22 134
-62 242 -264 264 -496 8 -79 8 -288 0 -352 -19 -156 -67 -314 -136 -450 -123
-241 -274 -388 -514 -500 -112 -53 -201 -80 -331 -100 -192 -30 -220 -36 -264
-57 -52 -25 -143 -114 -139 -136 2 -12 26 -19 98 -28 52 -7 107 -15 123 -18
15 -3 39 -8 55 -11 158 -31 394 -117 682 -248 333 -151 478 -202 572 -201 110
2 211 65 286 177 36 54 63 115 54 120 -4 3 -32 8 -62 12 -88 12 -108 16 -295
61 -205 49 -765 211 -797 230 -15 9 -1 16 107 52 166 56 312 133 452 240 327
249 517 681 507 1153 -7 332 -115 566 -324 703 -99 65 -185 92 -318 101 -99 6
-107 12 -103 73 3 65 -15 105 -85 188 -182 215 -375 448 -383 462 -6 11 -2 43
11 92 47 184 -26 389 -181 511 -85 67 -246 112 -356 101z"/>
<path d="M3505 3669 c3 -19 7 -51 9 -71 2 -20 7 -42 11 -48 3 -5 1 -10 -5 -10
-8 0 -7 -6 1 -21 8 -16 8 -20 -1 -14 -9 6 -9 2 -1 -14 9 -16 9 -21 0 -21 -9 0
-9 -3 0 -14 8 -9 8 -16 2 -20 -7 -4 -7 -15 -1 -31 6 -16 6 -27 -1 -31 -6 -4
-6 -11 2 -20 9 -11 9 -14 0 -14 -9 0 -9 -5 -1 -20 8 -15 8 -20 -1 -20 -8 0 -8
-4 1 -15 7 -8 8 -15 3 -15 -11 0 -11 -29 1 -48 4 -6 3 -12 -3 -12 -10 0 -10
-18 2 -37 4 -6 3 -14 -1 -17 -5 -3 -9 -32 -8 -66 1 -33 -2 -60 -5 -60 -10 0
-5 -34 6 -42 6 -5 6 -8 -2 -8 -7 0 -10 -13 -9 -32 2 -18 -1 -38 -6 -45 -5 -7
-5 -14 2 -18 6 -3 7 -12 3 -18 -4 -7 -8 -26 -9 -42 -2 -45 -14 -185 -20 -225
-3 -19 -7 -56 -9 -83 -2 -26 -7 -52 -10 -57 -3 -6 -1 -10 5 -10 6 0 8 -5 5
-10 -8 -13 -15 -50 -18 -100 -1 -22 -4 -40 -7 -40 -3 0 -6 -19 -8 -43 -1 -23
-3 -55 -5 -72 -1 -16 -6 -33 -10 -36 -5 -4 -4 -17 3 -29 7 -12 8 -20 2 -16 -5
3 -12 -3 -15 -14 -3 -11 0 -20 6 -20 7 0 5 -5 -3 -10 -8 -5 -11 -10 -6 -10 5
0 3 -6 -3 -14 -8 -10 -9 -16 -1 -21 6 -3 7 -12 3 -18 -4 -6 -8 -20 -9 -32 -1
-11 -5 -40 -9 -65 -3 -25 -7 -57 -9 -71 -2 -15 -6 -31 -10 -37 -3 -6 -2 -13 4
-17 6 -4 5 -16 -5 -35 -10 -19 -11 -31 -5 -35 6 -4 8 -10 5 -15 -7 -11 84 -82
96 -74 5 3 9 0 9 -6 0 -6 15 -17 33 -24 17 -7 41 -17 52 -21 11 -5 23 -7 28
-7 4 1 7 -3 7 -9 0 -5 5 -7 10 -4 6 3 10 2 10 -3 0 -5 6 -9 13 -10 10 0 31 -5
72 -16 107 -28 334 -40 440 -23 67 10 199 47 209 57 6 6 17 10 26 10 8 0 51
21 93 46 177 103 272 255 281 447 5 104 -8 185 -40 254 -49 103 -205 235 -328
278 -33 11 -61 25 -63 32 -2 6 17 19 43 29 114 43 246 153 314 260 92 145 102
341 24 466 -90 145 -226 216 -428 222 -129 4 -258 -21 -366 -71 -51 -24 -66
-20 -115 35 -50 56 -176 127 -243 138 l-42 7 5 -34z m715 -308 c4 -7 9 -12 11
-11 2 0 20 -6 39 -14 19 -8 32 -15 27 -16 -4 0 6 -14 23 -31 16 -18 30 -38 30
-45 0 -7 5 -14 11 -16 12 -4 22 -208 10 -208 -4 0 -8 -6 -9 -12 -3 -42 -7 -56
-14 -52 -4 3 -8 -4 -8 -16 0 -11 -7 -23 -15 -26 -8 -4 -13 -10 -10 -14 3 -5
-6 -21 -20 -36 -14 -15 -25 -31 -25 -35 0 -5 -5 -9 -11 -9 -6 0 -27 -17 -47
-39 -20 -21 -43 -36 -49 -34 -7 3 -13 0 -13 -6 0 -15 -79 -54 -96 -47 -8 3
-14 1 -14 -5 0 -6 -4 -8 -9 -5 -5 4 -11 2 -13 -3 -1 -5 -10 -11 -18 -13 -8 -2
-18 -7 -22 -13 -5 -6 -8 -5 -8 3 0 8 -5 9 -17 3 -10 -5 -31 -15 -46 -22 -16
-7 -26 -18 -23 -26 3 -7 0 -13 -6 -13 -9 0 -9 -3 0 -12 7 -7 12 -20 12 -31 0
-10 4 -15 10 -12 5 3 18 1 29 -5 14 -7 22 -7 27 1 5 8 8 8 13 0 4 -6 28 -12
53 -13 25 -2 44 -6 41 -10 -2 -5 5 -8 16 -8 10 0 21 -4 23 -10 2 -5 15 -11 30
-12 15 -1 25 -5 23 -8 -1 -3 4 -12 13 -20 9 -8 17 -13 17 -10 0 2 10 -2 22
-11 13 -9 20 -19 16 -22 -3 -4 1 -7 10 -7 8 0 19 -9 22 -20 3 -11 13 -20 21
-20 8 0 14 -3 15 -7 3 -28 9 -45 23 -59 9 -8 16 -24 16 -35 0 -10 5 -19 11
-19 5 0 7 -5 4 -10 -4 -6 -1 -18 7 -27 9 -12 9 -15 1 -9 -7 4 -13 3 -13 -3 0
-5 3 -12 8 -14 7 -5 6 -146 -1 -177 -12 -49 -31 -100 -39 -100 -5 0 -6 -4 -3
-10 3 -5 1 -10 -4 -10 -6 0 -11 -5 -11 -11 0 -6 -11 -24 -25 -41 -14 -16 -25
-26 -25 -21 0 4 -8 -4 -18 -20 -10 -15 -22 -24 -25 -20 -4 3 -7 1 -7 -5 0 -7
-6 -12 -14 -12 -7 0 -19 -7 -26 -15 -7 -8 -16 -13 -20 -10 -5 3 -11 1 -15 -5
-20 -33 -216 -43 -309 -16 -77 23 -79 27 -72 153 3 60 8 119 10 133 3 14 7 70
11 125 4 55 9 109 11 119 2 11 6 44 9 75 10 114 16 177 20 201 2 14 9 75 15
135 6 61 12 124 14 140 3 17 7 68 11 115 4 47 8 101 10 120 2 19 7 89 10 155
9 142 13 149 106 175 76 20 246 21 259 1z"/>
<path d="M1988 587 c-39 -11 -47 -24 -68 -104 -37 -145 -16 -234 63 -269 32
-15 63 -19 137 -18 150 3 167 16 192 155 24 128 0 201 -77 234 -35 15 -193 16
-247 2z"/>
</g>
</svg>
